<svg width="493" height="131" viewBox="0 0 493 131" fill="none" xmlns="http://www.w3.org/2000/svg">
<path d="M492.443 86.756C490.272 89.1729 487.843 91.2928 485.012 92.9519C479.836 95.9832 474.185 96.6489 468.35 96.3212C461.135 95.9115 454.672 93.5458 449.371 88.5482C444.318 83.7758 441.519 77.8257 440.695 70.9847C439.769 63.355 441.045 56.1556 445.337 49.6422C449.917 42.709 456.524 38.8788 464.634 37.4553C471.54 36.2468 478.137 37.1685 484.395 40.3638C487.472 41.9409 490.57 44.5933 491.929 46.8873C489.819 48.3928 487.699 49.8982 485.496 51.4754C483.777 48.9765 481.595 47.1536 478.981 45.853C470.305 41.5415 458.778 44.747 453.21 53.0013C447.519 61.44 447.859 75.1426 455.372 82.9668C458.778 86.5102 462.957 88.5379 467.825 89.0705C473.588 89.6952 478.992 88.8042 483.489 84.7795C484.436 83.9294 485.404 83.1102 486.536 82.1065C488.316 83.4379 490.375 84.974 492.433 86.5C492.443 86.5921 492.443 86.6741 492.443 86.756Z" fill="white"/>
<path d="M426.422 60.385C425.311 54.312 422.645 48.9661 418.096 44.7263C411.262 38.3563 403.008 36.0623 393.848 37.2708C387.375 38.131 381.776 40.9473 377.618 46.1601C377.124 46.7848 376.661 47.4402 376.177 48.0751C376.084 48.0547 376.002 48.0342 375.909 48.0137C375.909 44.8287 375.909 41.6437 375.909 38.4997C373.028 38.4997 370.331 38.4997 367.521 38.4997C367.521 67.0007 367.521 95.3993 367.521 123.808C370.321 123.808 373.12 123.808 375.92 123.808C375.92 111.089 375.92 98.359 375.92 85.4654C377.464 87.1143 378.678 88.6811 380.16 89.9408C385.615 94.6108 392.016 96.6897 399.18 96.3517C409.019 95.8909 416.954 91.8457 422.306 83.4787C426.834 76.3816 427.915 68.5676 426.422 60.385ZM414.473 80.0069C410.459 86.4486 404.336 89.1318 399.848 89.2034C385.327 89.2034 376.29 81.0413 375.158 69.6224C374.417 62.1976 376.187 55.5409 381.57 50.1746C387.57 44.1835 394.95 42.719 402.967 44.8389C410.861 46.9281 415.441 52.4583 417.324 60.1699C419.012 67.1134 418.312 73.852 414.473 80.0069Z" fill="white"/>
<path d="M350.016 67.3895C349.82 64.6244 349.913 61.8183 349.48 59.0942C348.472 52.632 345.672 47.0404 340.516 42.8108C336.194 39.2571 331.151 37.4854 325.593 37.0758C316.31 36.3896 308.272 39.1035 301.891 45.9343C296.034 52.2019 293.76 59.8008 294.13 68.2395C294.491 76.4528 297.486 83.5909 303.692 89.0597C312.316 96.6688 322.423 97.9592 333.24 94.9073C339.353 93.1868 344.036 89.3771 347.978 84.3692C345.868 82.7204 343.81 81.133 341.761 79.5252C333.765 90.6265 321.939 90.5856 314.992 87.4416C305.832 83.3041 302.683 74.251 303.012 68.8744C303.486 68.8744 303.969 68.8744 304.453 68.8744C319.14 68.8744 333.816 68.8642 348.503 68.9051C349.707 68.9154 350.098 68.5467 350.016 67.3895ZM302.796 62.1255C303.301 60.2207 303.589 58.3978 304.258 56.7285C308.58 45.9958 320.046 41.1825 331.027 45.5349C336.965 47.8904 339.816 52.8676 341.082 58.8689C341.195 59.3912 341.267 59.9135 341.319 60.446C341.381 60.9683 341.391 61.5008 341.432 62.1358C328.639 62.1255 315.898 62.1255 302.796 62.1255Z" fill="white"/>
<path d="M198.589 3.8418C198.589 18.5788 198.589 33.2338 198.589 47.8888C196.613 45.4822 194.585 43.2906 192.064 41.6213C186.372 37.832 180.105 36.3983 173.291 37.1561C164.142 38.17 156.917 42.3279 152.028 50.1316C147.778 56.9112 146.697 64.377 147.932 72.1807C149.126 79.6567 152.574 85.9243 158.677 90.584C164.739 95.213 171.717 96.9335 179.22 96.2781C186.743 95.6124 193.124 92.5503 197.755 86.3749C197.93 86.1394 198.157 85.9345 198.62 85.4225C198.62 88.8123 198.62 91.8334 198.62 94.8443C201.46 94.8443 204.116 94.8443 206.771 94.8443C206.771 64.4487 206.771 34.1555 206.771 3.85204C204.003 3.8418 201.357 3.8418 198.589 3.8418ZM185.971 87.6755C174.938 92.0075 159.294 88.034 156.69 70.8187C155.919 65.7391 156.454 60.7926 158.522 56.0612C162.022 48.0629 169.741 43.5363 178.993 44.0279C189.234 44.5707 197.591 52.1082 199.114 62.2264C199.33 63.6806 199.412 65.1451 199.556 66.6096C199.443 76.3796 194.431 84.3574 185.971 87.6755Z" fill="white"/>
<path d="M280.636 67.1932C280.605 65.0323 280.616 62.851 280.369 60.7106C279.607 54.187 277.219 48.3496 272.3 43.8128C263.469 35.6608 248.628 34.5446 238.13 41.2934C229.372 46.9158 225.235 55.1702 224.751 65.3805C224.03 80.6091 234.158 94.5472 250.563 96.1858C260.587 97.1894 269.356 94.4653 276.365 86.9995C277.137 86.1802 277.847 85.3097 278.64 84.3983C276.468 82.7085 274.44 81.1211 272.361 79.503C269.305 83.7838 265.507 86.979 260.485 88.3923C255.472 89.8158 250.481 89.6315 245.664 87.4604C236.834 83.4971 233.448 74.9969 233.602 68.883C234.189 68.883 234.672 68.883 235.166 68.883C249.771 68.883 264.375 68.883 278.969 68.883C280.616 68.883 280.667 68.8728 280.636 67.1932ZM233.623 62.1648C233.787 61.0998 233.87 60.1064 234.106 59.1437C236.463 49.6912 245.005 43.485 254.875 44.0381C264.467 44.5706 271.168 51.043 271.97 60.5775C272.012 61.0588 272.053 61.5401 272.104 62.1648C259.249 62.1648 246.56 62.1648 233.623 62.1648Z" fill="white"/>
<path d="M120.383 56.5724C117.179 56.5625 114.612 54.0181 114.632 50.8499C114.642 47.6917 117.249 45.1175 120.413 45.1373C123.607 45.1472 126.174 47.7214 126.144 50.8895C126.124 54.0874 123.607 56.5724 120.383 56.5724Z" fill="white"/>
<path d="M98.3742 106.115C98.3543 109.233 95.8072 111.728 92.6531 111.738C89.4294 111.748 86.8425 109.134 86.8823 105.897C86.9221 102.808 89.519 100.273 92.6332 100.273C95.8868 100.273 98.404 102.838 98.3742 106.115Z" fill="white"/>
<path d="M120.383 70.3625C117.179 70.3427 114.632 67.8082 114.632 64.6301C114.632 61.4817 117.249 58.9076 120.423 58.9175C123.596 58.9274 126.183 61.5114 126.154 64.6796C126.134 67.8676 123.596 70.3724 120.383 70.3625Z" fill="white"/>
<path d="M78.7821 3.81204C82.0057 3.82194 84.533 6.32678 84.523 9.52465C84.5131 12.6829 81.8963 15.2769 78.7522 15.267C75.5982 15.2571 73.0013 12.6532 73.0113 9.49495C73.0212 6.29707 75.5484 3.80214 78.7821 3.81204Z" fill="white"/>
<path d="M112.263 92.3235C112.213 95.4422 109.636 97.9767 106.532 97.9668C103.328 97.9569 100.642 95.2442 100.731 92.1156C100.821 88.9673 103.507 86.3931 106.621 86.4822C109.845 86.5713 112.323 89.1356 112.263 92.3235Z" fill="white"/>
<path d="M98.3725 23.2858C98.3725 26.4837 95.8354 29.0282 92.6415 29.0282C89.4676 29.0282 86.8806 26.454 86.8806 23.2858C86.8707 20.1276 89.4477 17.5732 92.6415 17.5732C95.8851 17.5732 98.3725 20.0583 98.3725 23.2858Z" fill="white"/>
<path d="M120.342 84.1246C117.128 84.1048 114.581 81.5406 114.631 78.3724C114.681 75.2141 117.307 72.64 120.451 72.6697C123.615 72.6994 126.192 75.3329 126.153 78.4813C126.103 81.699 123.586 84.1444 120.342 84.1246Z" fill="white"/>
<path d="M112.262 37.059C112.272 40.2569 109.735 42.8014 106.541 42.8014C103.358 42.8014 100.751 40.247 100.731 37.0986C100.711 33.98 103.328 31.3761 106.502 31.3662C109.725 31.3563 112.253 33.8612 112.262 37.059Z" fill="white"/>
<path d="M78.7728 114.093C81.9865 114.093 84.5336 116.618 84.5237 119.796C84.5237 122.944 81.9069 125.548 78.7628 125.548C75.6088 125.548 73.002 122.934 73.002 119.796C73.0219 116.598 75.559 114.083 78.7728 114.093Z" fill="white"/>
<path d="M59.1817 119.747C59.1916 116.55 61.7089 114.084 64.9525 114.104C68.1563 114.124 70.6735 116.658 70.6536 119.837C70.6238 122.985 67.9971 125.569 64.8629 125.529C61.679 125.5 59.1717 122.935 59.1817 119.747Z" fill="white"/>
<path d="M59.1818 9.4261C59.2017 6.23813 61.7289 3.8026 64.9824 3.8323C68.1862 3.8521 70.6836 6.39654 70.6438 9.59441C70.604 12.723 67.9275 15.3268 64.8133 15.2575C61.6493 15.1882 59.1619 12.6141 59.1818 9.4261Z" fill="white"/>
<path d="M45.3104 9.5346C45.2905 6.32683 47.7978 3.8418 51.0315 3.8418C54.2253 3.8418 56.8023 6.39613 56.7824 9.5445C56.7625 12.6434 54.086 15.267 50.9618 15.2373C47.8575 15.2076 45.3204 12.6533 45.3104 9.5346Z" fill="white"/>
<path d="M51.0117 114.115C54.1857 114.105 56.7925 116.679 56.7825 119.808C56.7726 122.906 54.1061 125.53 50.9819 125.52C47.8975 125.5 45.3404 122.946 45.3106 119.837C45.2807 116.63 47.7781 114.125 51.0117 114.115Z" fill="white"/>
<path d="M42.8247 23.3264C42.8048 26.4945 40.2975 28.9895 37.1434 28.9796C33.9197 28.9598 31.4622 26.4549 31.4821 23.1977C31.502 20.0394 34.0093 17.6039 37.2131 17.6336C40.387 17.6633 42.8446 20.1483 42.8247 23.3264Z" fill="white"/>
<path d="M17.6218 36.9091C17.7014 33.7707 20.2684 31.345 23.4424 31.4242C26.5865 31.5035 29.0142 34.0776 28.9346 37.2359C28.855 40.3743 26.2581 42.8297 23.114 42.7207C19.9301 42.6118 17.5422 40.0872 17.6218 36.9091Z" fill="white"/>
<path d="M37.1931 100.352C40.3869 100.372 42.8345 102.847 42.8246 106.025C42.8047 109.273 40.3073 111.698 37.0438 111.649C33.84 111.599 31.472 109.164 31.482 105.926C31.5019 102.768 33.9992 100.323 37.1931 100.352Z" fill="white"/>
<path d="M23.2228 86.6101C26.4265 86.5804 28.904 88.9863 28.9339 92.1643C28.9737 95.3127 26.5161 97.8076 23.3322 97.8472C20.1583 97.8868 17.6609 95.4414 17.6211 92.2732C17.5813 89.0952 20.019 86.6299 23.2228 86.6101Z" fill="white"/>
<path d="M15.0149 50.899C15.0049 53.9879 12.5374 56.4631 9.42314 56.4829C6.26909 56.5027 3.81152 54.0275 3.81152 50.8198C3.81152 47.6912 6.24919 45.2458 9.37339 45.2161C12.4578 45.1864 15.0149 47.7704 15.0149 50.899Z" fill="white"/>
<path d="M15.0146 64.7212C14.9947 67.8102 12.5172 70.2556 9.39305 70.2556C6.1992 70.2457 3.81128 67.8102 3.83118 64.5826C3.85108 61.4541 6.30865 59.0086 9.42289 59.0284C12.557 59.0383 15.0246 61.5531 15.0146 64.7212Z" fill="white"/>
<path d="M15.0149 78.4812C15.0049 81.6098 12.5673 84.0156 9.41322 84.0156C6.17958 84.0156 3.8016 81.6197 3.81155 78.3822C3.8215 75.2537 6.28902 72.7884 9.38337 72.8082C12.5573 72.828 15.0248 75.3131 15.0149 78.4812Z" fill="white"/>
<path d="M73.4393 105.966C73.4692 103.045 75.8472 100.679 78.7525 100.659C81.7075 100.649 84.1153 103.075 84.0954 106.045C84.0755 109.025 81.6578 111.372 78.6629 111.322C75.7377 111.273 73.4194 108.896 73.4393 105.966Z" fill="white"/>
<path d="M101.179 78.4723C101.159 75.5616 103.507 73.1557 106.422 73.1062C109.387 73.0567 111.845 75.423 111.884 78.3832C111.924 81.294 109.457 83.7493 106.502 83.7493C103.586 83.7493 101.198 81.3831 101.179 78.4723Z" fill="white"/>
<path d="M106.543 59.354C109.488 59.3639 111.866 61.7005 111.886 64.6112C111.905 67.5319 109.438 69.9971 106.503 69.9773C103.538 69.9674 101.14 67.5319 101.18 64.5716C101.21 61.6609 103.588 59.3441 106.543 59.354Z" fill="white"/>
<path d="M97.9451 92.2924C97.9153 95.2428 95.5671 97.5694 92.632 97.5595C89.667 97.5496 87.3188 95.1537 87.3387 92.1439C87.3487 89.2331 89.7366 86.8768 92.6718 86.8966C95.6567 86.9065 97.975 89.2727 97.9451 92.2924Z" fill="white"/>
<path d="M106.532 56.1467C103.507 56.1467 101.159 53.8002 101.179 50.8103C101.198 47.8896 103.567 45.563 106.512 45.563C109.487 45.563 111.914 47.9787 111.884 50.9192C111.855 53.8299 109.487 56.1467 106.532 56.1467Z" fill="white"/>
<path d="M84.1061 23.2474C84.126 26.1977 81.8177 28.5541 78.8825 28.5838C75.8479 28.6234 73.4699 26.3264 73.45 23.3365C73.4201 20.3663 75.8379 17.9506 78.793 17.9605C81.7182 17.9803 84.0862 20.3366 84.1061 23.2474Z" fill="white"/>
<path d="M97.9447 37.1278C97.9248 40.0979 95.6463 42.3652 92.6515 42.3652C89.6168 42.3652 87.3185 40.0583 87.3284 37.0288C87.3384 34.0289 89.6964 31.7617 92.751 31.8013C95.7259 31.831 97.9646 34.1279 97.9447 37.1278Z" fill="white"/>
<path d="M70.1955 105.956C70.2054 108.946 67.8573 111.312 64.8823 111.312C61.9372 111.312 59.619 109.006 59.609 106.055C59.5891 103.036 61.9273 100.669 64.9122 100.679C67.8274 100.689 70.1855 103.045 70.1955 105.956Z" fill="white"/>
<path d="M56.3454 105.956C56.3653 108.857 54.0172 111.252 51.1019 111.292C48.127 111.332 45.6893 108.946 45.6992 105.995C45.7092 103.094 48.0872 100.718 51.0024 100.689C53.8878 100.669 56.3156 103.065 56.3454 105.956Z" fill="white"/>
<path d="M70.196 23.2868C70.196 26.2966 67.8678 28.6034 64.8431 28.5836C61.8781 28.5638 59.6096 26.2768 59.5996 23.3066C59.5996 20.3067 61.9676 17.9405 64.9426 17.99C67.8976 18.0296 70.206 20.3463 70.196 23.2868Z" fill="white"/>
<path d="M51.0024 28.563C48.0673 28.563 45.6893 26.2067 45.6992 23.3058C45.6992 20.405 48.0573 18.0388 50.9825 18.0091C53.9376 17.9794 56.3653 20.3951 56.3454 23.3454C56.3156 26.2463 53.9475 28.563 51.0024 28.563Z" fill="white"/>
<path d="M31.8994 92.2145C31.8895 89.274 34.2177 86.9474 37.1628 86.9375C40.0681 86.9375 42.4461 89.3037 42.4561 92.2145C42.4561 95.1153 40.0681 97.4915 37.1628 97.5014C34.2078 97.5113 31.8994 95.1846 31.8994 92.2145Z" fill="white"/>
<path d="M37.1628 31.8501C40.1378 31.86 42.4561 34.1669 42.4461 37.1172C42.4262 40.0379 40.0482 42.3447 37.0832 42.3249C34.158 42.3051 31.9094 40.028 31.8994 37.0974C31.8895 34.0976 34.158 31.8402 37.1628 31.8501Z" fill="white"/>
<path d="M23.2627 83.6298C20.2679 83.6199 17.9297 81.2834 17.9894 78.3627C18.0491 75.5113 20.4271 73.1748 23.2826 73.1748C26.168 73.1748 28.6256 75.6598 28.5659 78.5013C28.5062 81.4121 26.1979 83.6298 23.2627 83.6298Z" fill="white"/>
<path d="M23.2624 56.0675C20.2974 56.0675 17.9393 53.7013 17.9891 50.7905C18.0388 47.9292 20.3969 45.6323 23.2823 45.6323C26.2075 45.6323 28.6153 48.0481 28.5656 50.9291C28.5158 53.8003 26.1776 56.0675 23.2624 56.0675Z" fill="white"/>
<path d="M23.3231 69.8578C20.3681 69.8776 17.9702 67.5213 17.9901 64.6303C18.01 61.7591 20.3482 59.4325 23.2336 59.4127C26.1488 59.3929 28.5766 61.769 28.5666 64.66C28.5567 67.5213 26.2185 69.838 23.3231 69.8578Z" fill="white"/>
<path d="M92.6813 45.9393C95.3876 45.969 97.6064 48.2065 97.5964 50.8895C97.5865 53.5726 95.3279 55.7804 92.6216 55.7705C89.8457 55.7606 87.7065 53.533 87.7562 50.7113C87.806 48.0481 90.0148 45.9096 92.6813 45.9393Z" fill="white"/>
<path d="M87.7566 78.4131C87.7665 75.6508 89.8958 73.5321 92.6618 73.542C95.388 73.5519 97.6068 75.7597 97.5968 78.4527C97.5869 81.1258 95.3283 83.3436 92.622 83.3337C89.8958 83.3337 87.7566 81.1654 87.7566 78.4131Z" fill="white"/>
<path d="M78.7627 41.9789C76.0664 41.9789 73.7978 39.7216 73.8277 37.0584C73.8575 34.3555 76.0863 32.1576 78.7926 32.1675C81.4989 32.1774 83.7475 34.4149 83.7276 37.0881C83.6977 39.781 81.469 41.9789 78.7627 41.9789Z" fill="white"/>
<path d="M78.7724 87.3428C81.5185 87.3428 83.7373 89.5308 83.7174 92.2237C83.7074 94.9167 81.4688 97.1245 78.7724 97.1245C76.0661 97.1245 73.8175 94.887 73.8274 92.2237C73.8374 89.511 76.0362 87.3428 78.7724 87.3428Z" fill="white"/>
<path d="M87.7567 64.6895C87.7368 61.9075 89.8263 59.7986 92.6122 59.7788C95.3583 59.7689 97.5671 61.9174 97.597 64.6103C97.6169 67.2636 95.3384 69.5705 92.6918 69.5705C89.9556 69.5804 87.7766 67.422 87.7567 64.6895Z" fill="white"/>
<path d="M69.7683 92.2138C69.7683 94.9761 67.659 97.1047 64.9029 97.1047C62.1867 97.1047 59.9878 94.9266 59.9878 92.2237C59.9878 89.5011 62.1469 87.3527 64.893 87.3428C67.659 87.3428 69.7683 89.4417 69.7683 92.2138Z" fill="white"/>
<path d="M69.7686 37.1267C69.7587 39.8593 67.5698 42.0077 64.8435 41.9582C62.0974 41.9087 59.9583 39.7206 59.9881 37.0178C60.0279 34.2952 62.2268 32.1566 64.943 32.1863C67.6692 32.216 69.7786 34.3744 69.7686 37.1267Z" fill="white"/>
<path d="M55.9084 92.1842C55.9283 94.8969 53.7493 97.0948 51.033 97.0948C48.3466 97.1047 46.098 94.8573 46.1079 92.1941C46.1179 89.5605 48.2969 87.3923 50.9634 87.3626C53.7095 87.3329 55.8885 89.4516 55.9084 92.1842Z" fill="white"/>
<path d="M55.9085 37.1281C55.8886 39.8507 53.6897 41.9793 50.9436 41.9397C48.2771 41.9001 46.1279 39.7418 46.108 37.0885C46.0881 34.4153 48.3368 32.1976 51.053 32.2174C53.7792 32.2273 55.9284 34.3955 55.9085 37.1281Z" fill="white"/>
<path d="M42.0085 78.393C42.0184 81.1255 39.8494 83.3036 37.1332 83.2937C34.4567 83.2838 32.2976 81.1453 32.2777 78.4821C32.2578 75.7594 34.4269 73.5912 37.163 73.6011C39.8693 73.6011 41.9986 75.7099 42.0085 78.393Z" fill="white"/>
<path d="M37.0833 59.8292C39.8194 59.8094 41.9686 61.8589 42.0084 64.532C42.0482 67.2744 39.9488 69.4526 37.2126 69.512C34.5362 69.5714 32.2776 67.3536 32.2776 64.6508C32.2776 61.9579 34.3869 59.849 37.0833 59.8292Z" fill="white"/>
<path d="M42.0084 50.8991C41.9985 53.6019 39.8991 55.6711 37.1729 55.681C34.4069 55.6909 32.2677 53.5623 32.2776 50.8199C32.2975 48.1467 34.4268 46.028 37.1231 46.0181C39.8792 46.0082 42.0184 48.1467 42.0084 50.8991Z" fill="white"/>
<path d="M78.7616 82.8972C76.2343 82.8972 74.2046 80.8775 74.2345 78.4024C74.2643 75.9965 76.2841 73.9669 78.7218 73.9273C81.1694 73.8877 83.2887 75.9569 83.3086 78.4123C83.3185 80.8874 81.2888 82.8972 78.7616 82.8972Z" fill="white"/>
<path d="M74.2345 50.8096C74.2743 48.3642 76.4234 46.2851 78.8511 46.3445C81.3286 46.4039 83.3683 48.5226 83.2986 50.9681C83.229 53.3937 81.1793 55.3639 78.7417 55.354C76.2642 55.3441 74.2046 53.265 74.2345 50.8096Z" fill="white"/>
<path d="M69.3901 50.8395C69.41 53.2949 67.4399 55.3047 64.9824 55.3443C62.475 55.3839 60.4155 53.3741 60.4055 50.889C60.4055 48.4337 62.3557 46.4239 64.8132 46.3645C67.3006 46.2952 69.3702 48.3347 69.3901 50.8395Z" fill="white"/>
<path d="M64.853 82.8883C62.3656 82.8685 60.4055 80.9081 60.4055 78.4429C60.4055 75.9282 62.4452 73.9184 64.9426 73.9481C67.4698 73.9877 69.4398 76.0173 69.3901 78.532C69.3304 81.0171 67.3603 82.9081 64.853 82.8883Z" fill="white"/>
<path d="M46.5453 50.8396C46.5652 48.4041 48.5949 46.3745 51.0227 46.3745C53.4603 46.3745 55.51 48.4041 55.5199 50.8198C55.5398 53.3049 53.4703 55.3543 50.9729 55.3246C48.5153 55.2949 46.5254 53.2851 46.5453 50.8396Z" fill="white"/>
<path d="M46.5452 64.6403C46.5452 62.1751 48.5252 60.2148 51.0027 60.195C53.51 60.1752 55.5496 62.2147 55.5198 64.7096C55.4899 67.1352 53.4403 69.1252 50.9927 69.1054C48.5451 69.0955 46.5353 67.0758 46.5452 64.6403Z" fill="white"/>
<path d="M50.9927 82.8682C48.5152 82.8583 46.5452 80.898 46.5452 78.4327C46.5452 75.9873 48.5351 73.9874 50.9927 73.9676C53.4701 73.9379 55.5596 76.0368 55.5098 78.4921C55.4601 80.9673 53.49 82.8781 50.9927 82.8682Z" fill="white"/>
<path d="M82.8612 64.6513C82.8513 66.9284 81.0603 68.7105 78.7719 68.7006C76.4835 68.7006 74.6926 66.9086 74.6826 64.6414C74.6826 62.394 76.5133 60.5624 78.7719 60.5723C81.0404 60.5723 82.8612 62.4039 82.8612 64.6513Z" fill="white"/>
<path d="M60.8533 64.6502C60.8533 62.3632 62.6243 60.5811 64.8928 60.5811C67.1514 60.5811 68.9722 62.383 68.9822 64.6403C68.9921 66.8976 67.1912 68.6896 64.9127 68.6896C62.6044 68.6995 60.8533 66.9471 60.8533 64.6502Z" fill="white"/>
</svg>
